<mxfile host="Electron" agent="Mozilla/5.0 (Windows NT 10.0; Win64; x64) AppleWebKit/537.36 (KHTML, like Gecko) draw.io/24.7.17 Chrome/128.0.6613.36 Electron/32.0.1 Safari/537.36" version="24.7.17">
  <diagram name="Page-1" id="02HSFHjdbONLHduDTO8H">
    <mxGraphModel dx="1322" dy="684" grid="1" gridSize="10" guides="1" tooltips="1" connect="1" arrows="1" fold="1" page="1" pageScale="1" pageWidth="850" pageHeight="1100" math="0" shadow="0">
      <root>
        <mxCell id="0" />
        <mxCell id="1" parent="0" />
        <mxCell id="62WXHgEx2YW_6uTmfGIS-1" value="ShoppingCart" style="rounded=1;arcSize=10;whiteSpace=wrap;html=1;align=center;" parent="1" vertex="1">
          <mxGeometry x="380" y="380" width="100" height="40" as="geometry" />
        </mxCell>
        <mxCell id="62WXHgEx2YW_6uTmfGIS-3" value="ExistIn" style="ellipse;shape=doubleEllipse;margin=3;whiteSpace=wrap;html=1;align=center;" parent="1" vertex="1">
          <mxGeometry x="270" y="300" width="100" height="40" as="geometry" />
        </mxCell>
        <mxCell id="62WXHgEx2YW_6uTmfGIS-4" value="Course" style="ellipse;whiteSpace=wrap;html=1;align=center;" parent="1" vertex="1">
          <mxGeometry x="210" y="230" width="100" height="40" as="geometry" />
        </mxCell>
        <mxCell id="62WXHgEx2YW_6uTmfGIS-5" value="" style="endArrow=none;html=1;rounded=0;" parent="1" source="62WXHgEx2YW_6uTmfGIS-3" target="62WXHgEx2YW_6uTmfGIS-1" edge="1">
          <mxGeometry relative="1" as="geometry">
            <mxPoint x="250" y="390" as="sourcePoint" />
            <mxPoint x="410" y="390" as="targetPoint" />
          </mxGeometry>
        </mxCell>
        <mxCell id="62WXHgEx2YW_6uTmfGIS-6" value="" style="endArrow=none;html=1;rounded=0;" parent="1" source="62WXHgEx2YW_6uTmfGIS-4" target="62WXHgEx2YW_6uTmfGIS-3" edge="1">
          <mxGeometry relative="1" as="geometry">
            <mxPoint x="331" y="346" as="sourcePoint" />
            <mxPoint x="400" y="380" as="targetPoint" />
          </mxGeometry>
        </mxCell>
        <mxCell id="62WXHgEx2YW_6uTmfGIS-8" value="Buyer" style="ellipse;whiteSpace=wrap;html=1;align=center;" parent="1" vertex="1">
          <mxGeometry x="380" y="300" width="100" height="40" as="geometry" />
        </mxCell>
        <mxCell id="62WXHgEx2YW_6uTmfGIS-9" value="" style="endArrow=none;html=1;rounded=0;" parent="1" source="62WXHgEx2YW_6uTmfGIS-8" target="62WXHgEx2YW_6uTmfGIS-1" edge="1">
          <mxGeometry relative="1" as="geometry">
            <mxPoint x="550" y="430" as="sourcePoint" />
            <mxPoint x="710" y="430" as="targetPoint" />
          </mxGeometry>
        </mxCell>
        <mxCell id="62WXHgEx2YW_6uTmfGIS-10" value="Coupon" style="ellipse;whiteSpace=wrap;html=1;align=center;" parent="1" vertex="1">
          <mxGeometry x="490" y="300" width="100" height="40" as="geometry" />
        </mxCell>
        <mxCell id="62WXHgEx2YW_6uTmfGIS-11" value="" style="endArrow=none;html=1;rounded=0;" parent="1" source="62WXHgEx2YW_6uTmfGIS-1" target="62WXHgEx2YW_6uTmfGIS-10" edge="1">
          <mxGeometry relative="1" as="geometry">
            <mxPoint x="500" y="380" as="sourcePoint" />
            <mxPoint x="660" y="380" as="targetPoint" />
          </mxGeometry>
        </mxCell>
        <mxCell id="62WXHgEx2YW_6uTmfGIS-12" value="Status" style="ellipse;whiteSpace=wrap;html=1;align=center;" parent="1" vertex="1">
          <mxGeometry x="600" y="300" width="100" height="40" as="geometry" />
        </mxCell>
        <mxCell id="62WXHgEx2YW_6uTmfGIS-13" value="" style="endArrow=none;html=1;rounded=0;" parent="1" source="62WXHgEx2YW_6uTmfGIS-1" target="62WXHgEx2YW_6uTmfGIS-12" edge="1">
          <mxGeometry relative="1" as="geometry">
            <mxPoint x="520" y="390" as="sourcePoint" />
            <mxPoint x="680" y="390" as="targetPoint" />
          </mxGeometry>
        </mxCell>
        <mxCell id="62WXHgEx2YW_6uTmfGIS-15" value="TotalPrice" style="ellipse;whiteSpace=wrap;html=1;align=center;dashed=1;" parent="1" vertex="1">
          <mxGeometry x="160" y="300" width="100" height="40" as="geometry" />
        </mxCell>
        <mxCell id="62WXHgEx2YW_6uTmfGIS-16" value="" style="endArrow=none;html=1;rounded=0;" parent="1" source="62WXHgEx2YW_6uTmfGIS-15" target="62WXHgEx2YW_6uTmfGIS-1" edge="1">
          <mxGeometry relative="1" as="geometry">
            <mxPoint x="230" y="390" as="sourcePoint" />
            <mxPoint x="390" y="390" as="targetPoint" />
          </mxGeometry>
        </mxCell>
      </root>
    </mxGraphModel>
  </diagram>
</mxfile>
